<?xml version="1.0" encoding="utf-8"?>
<svg width="300px" height="300px" xmlns="http://www.w3.org/2000/svg">
  <g style="visibility: hidden;">
    <line style="stroke: rgb(0, 0, 0);" x1="250" y1="0" x2="250" y2="500"/>
    <line style="stroke: rgb(0, 0, 0);" x1="100" y1="0" x2="100" y2="500"/>
    <line style="stroke: rgb(0, 0, 0);" x1="400" y1="0" x2="400" y2="500"/>
    <line style="stroke: rgb(0, 0, 0);" x1="0" y1="100" x2="500" y2="100"/>
    <line style="stroke: rgb(0, 0, 0);" x1="0" y1="250" x2="500" y2="250"/>
    <line style="stroke: rgb(0, 0, 0);" x1="0" y1="400" x2="500" y2="400"/>
    <line style="stroke: rgb(0, 0, 0);" x1="150" y1="0" x2="150" y2="500"/>
    <line style="stroke: rgb(0, 0, 0);" x1="350" y1="0" x2="350" y2="500"/>
    <line style="stroke: rgb(0, 0, 0);" x1="0" y1="150" x2="500" y2="150"/>
    <line style="stroke: rgb(0, 0, 0);" x1="0" y1="350" x2="500" y2="350"/>
  </g>
  <g transform="matrix(1, 0, 0, 1, -100, -100)">
    <path d="M 400 250 C 400 332.843 332.843 400 250 400 C 167.157 400 100 332.843 100 250 C 100 167.157 167.157 100 250 100 C 332.843 100 400 167.157 400 250 Z M 250 150 C 194.772 150 150 194.772 150 250 C 150 305.229 194.772 350 250 350 C 305.229 350 350 305.229 350 250 C 350 194.772 305.229 150 250 150 Z" style="fill: rgb(255, 255, 255);"/>
    <path style="fill: rgb(255, 255, 255);" d="M 405.758 379.651 C 364.418 402.569 318.442 398.914 282.911 377.746 C 283.664 377.25 284.401 376.761 285.12 376.282 C 296.066 368.985 312.833 365.538 322.201 356.17 C 327.97 350.401 335.398 345.007 343.361 340.364 C 354.559 362.676 377.232 379.154 405.756 379.651 C 405.757 379.651 405.757 379.651 405.758 379.651 Z" transform="matrix(0.961262, 0.275637, -0.275637, 0.961262, 114.726475, -80.662246)"/>
    <path d="M 100 250 C 100 239.609 101.057 229.465 103.068 219.669 L 193.705 167.339 C 167.321 185.343 150 215.649 150 250 C 150 305.229 194.772 350 250 350 C 272.144 350 292.606 342.803 309.176 330.62 L 309.606 331.365 L 203.469 392.643 C 143.404 373.062 100 316.6 100 250 Z M 209.606 158.159 L 209.76 158.426 C 208.737 158.877 207.722 159.344 206.716 159.827 Z" style="fill-opacity: 0.6; fill: rgb(215, 215, 215);"/>
    <circle style="fill: rgb(215, 215, 215);" cx="250" cy="250" r="20"/>
    <circle style="fill: rgb(215, 215, 215);" cx="200" cy="250" r="20"/>
    <circle style="fill: rgb(215, 215, 215);" cx="300" cy="250" r="20"/>
  </g>
</svg>